<?xml version="1.0" encoding="utf-8"?>
<!-- Generator: Adobe Illustrator 23.1.0, SVG Export Plug-In . SVG Version: 6.00 Build 0)  -->
<svg version="1.1" fill="white" id="Layer_1" xmlns="http://www.w3.org/2000/svg" xmlns:xlink="http://www.w3.org/1999/xlink" x="0px" y="0px"
	 viewBox="0 0 56.7 56.7" style="enable-background:new 0 0 56.7 56.7;" xml:space="preserve">
<path class="st0" d="M54.2,18H2c-1.1,0-1.9-0.9-1.9-1.9v-1.3c0-1.1,0.9-1.9,1.9-1.9h52.2c1.1,0,1.9,0.9,1.9,1.9v1.3
	C56.1,17.2,55.3,18,54.2,18z"/>
<path class="st0" d="M54.2,31.1H2c-1.1,0-1.9-0.9-1.9-1.9v-1.3c0-1.1,0.9-1.9,1.9-1.9h52.2c1.1,0,1.9,0.9,1.9,1.9v1.3
	C56.1,30.2,55.3,31.1,54.2,31.1z"/>
<path class="st0" d="M54.2,43.9H2c-1.1,0-1.9-0.9-1.9-1.9v-1.3c0-1.1,0.9-1.9,1.9-1.9h52.2c1.1,0,1.9,0.9,1.9,1.9V42
	C56.1,43.1,55.3,43.9,54.2,43.9z"/>
</svg>
