<svg xmlns="http://www.w3.org/2000/svg" width="75.107" height="80.319" viewBox="0 0 75.107 80.319">
  <g id="_15_barra_15" data-name="15_barra_15" transform="translate(-1.8)">
    <path id="Path_181" data-name="Path 181" d="M32.884,43.377a4.718,4.718,0,0,0,3.475-2l12.562-17.24a1.415,1.415,0,0,0-.134-1.737,1.4,1.4,0,0,0-1.737-.134L29.81,34.823a5.181,5.181,0,0,0-2,3.475,4.824,4.824,0,0,0,1.336,3.742,4.639,4.639,0,0,0,3.341,1.336Zm-2.406-4.945a1.812,1.812,0,0,1,.8-1.47l10.558-7.618L34.22,39.9a1.847,1.847,0,0,1-1.47.8,2.281,2.281,0,0,1-2.272-2.272Z" transform="translate(8.742 7.408)"/>
    <path id="Path_182" data-name="Path 182" d="M64.167,26.194h0a.131.131,0,0,0-.134-.134,36.555,36.555,0,0,0-4.811-6.415l2.806-2.806L63.9,18.71,69.512,13.1l-5.346-5.88L58.554,12.83,60.425,14.7l-2.94,2.94A36.555,36.555,0,0,0,51.07,12.83h-.134A34.914,34.914,0,0,0,37.171,8.286v-1.6h2a3.309,3.309,0,0,0,3.341-3.341A3.309,3.309,0,0,0,39.175,0H27.147a3.309,3.309,0,0,0-3.341,3.341,3.309,3.309,0,0,0,3.341,3.341h2v1.6a40.919,40.919,0,0,0-4.277.668,1.466,1.466,0,0,0-1.069,1.6,1.466,1.466,0,0,0,1.6,1.069,31.077,31.077,0,0,1,3.742-.668l1.47-.134a3.7,3.7,0,0,0,1.2-.134v2.673a1.336,1.336,0,1,0,2.673,0V10.691A35.27,35.27,0,0,1,48.53,14.433l-1.336,2.272a1.352,1.352,0,0,0,.535,1.871,1.2,1.2,0,0,0,.668.134,1.6,1.6,0,0,0,1.2-.668l1.336-2.272A33.736,33.736,0,0,1,61.36,26.194L59.088,27.53a1.48,1.48,0,0,0-.535,1.871,1.4,1.4,0,0,0,1.2.668,1.2,1.2,0,0,0,.668-.134L62.7,28.6a31.916,31.916,0,0,1,3.742,14.166H63.766a1.336,1.336,0,1,0,0,2.673h2.673A35.906,35.906,0,0,1,62.7,59.6l-2.272-1.336a1.376,1.376,0,1,0-1.336,2.406L61.36,62.01A33.736,33.736,0,0,1,50.936,72.434L49.6,70.162A1.376,1.376,0,1,0,47.194,71.5l1.336,2.272A31.356,31.356,0,0,1,34.5,77.513V74.84a1.336,1.336,0,1,0-2.673,0v2.673a52.576,52.576,0,0,1-6.415-.8,1.363,1.363,0,1,0-.535,2.673,33.177,33.177,0,0,0,8.152.936h.134A34.567,34.567,0,0,0,50.8,75.508h.134a37.254,37.254,0,0,0,13.1-13.1l.134-.134v-.134a35.983,35.983,0,0,0,0-35.95Zm0-15.1,1.871,1.871-1.871,1.871L62.3,12.963ZM31.825,8.019V4.009H27.147a.631.631,0,0,1-.668-.668.631.631,0,0,1,.668-.668H39.175a.631.631,0,0,1,.668.668.631.631,0,0,1-.668.668H34.5V8.019H31.825Z" transform="translate(7.395)"/>
    <path id="Path_183" data-name="Path 183" d="M23.819,14H17.136a1.336,1.336,0,0,0,0,2.673h6.682a1.263,1.263,0,0,0,1.336-1.336A1.339,1.339,0,0,0,23.819,14Z" transform="translate(4.71 4.71)"/>
    <path id="Path_184" data-name="Path 184" d="M25.5,21H12.136a1.336,1.336,0,0,0,0,2.673H25.5a1.263,1.263,0,0,0,1.336-1.336A1.339,1.339,0,0,0,25.5,21Z" transform="translate(3.028 7.065)"/>
    <path id="Path_185" data-name="Path 185" d="M27.183,28H7.136a1.336,1.336,0,1,0,0,2.673H27.183a1.263,1.263,0,0,0,1.336-1.336A1.339,1.339,0,0,0,27.183,28Z" transform="translate(1.346 9.42)"/>
    <path id="Path_186" data-name="Path 186" d="M28.529,35H3.136a1.336,1.336,0,1,0,0,2.673H28.529a1.263,1.263,0,0,0,1.336-1.336A1.339,1.339,0,0,0,28.529,35Z" transform="translate(0 11.775)"/>
    <path id="Path_187" data-name="Path 187" d="M26.51,42H9.136a1.336,1.336,0,0,0,0,2.673H26.51a1.263,1.263,0,0,0,1.336-1.336A1.339,1.339,0,0,0,26.51,42Z" transform="translate(2.019 14.13)"/>
    <path id="Path_188" data-name="Path 188" d="M24.491,49H15.136a1.336,1.336,0,1,0,0,2.673h9.355a1.263,1.263,0,0,0,1.336-1.336A1.339,1.339,0,0,0,24.491,49Z" transform="translate(4.037 16.485)"/>
  </g>
</svg>
