<svg xmlns="http://www.w3.org/2000/svg" width="24.549" height="25" viewBox="0 0 24.549 25">
  <g id="chat" transform="translate(-3.366)">
    <g id="Grupo_41" data-name="Grupo 41" transform="translate(3.366)">
      <path id="Caminho_145" data-name="Caminho 145" d="M15.7,0h-.04A12.264,12.264,0,0,0,6.039,19.907L4.25,24.067a.667.667,0,0,0,.348.877.681.681,0,0,0,.382.047l6.558-1.152a11.818,11.818,0,0,0,4.086.71A12.275,12.275,0,0,0,15.7,0ZM11.491,9.82h3.617a.67.67,0,1,1,0,1.34H11.491a.67.67,0,1,1,0-1.34ZM19.8,14.508H11.491a.67.67,0,0,1,0-1.34H19.8a.67.67,0,0,1,0,1.34Z" transform="translate(-3.366)"/>
    </g>
  </g>
</svg>