<?xml version="1.0" encoding="iso-8859-1"?>
<!-- Generator: Adobe Illustrator 18.1.1, SVG Export Plug-In . SVG Version: 6.00 Build 0)  -->
<svg version="1.1" fill="#B1B1B1" id="Capa_1" xmlns="http://www.w3.org/2000/svg" xmlns:xlink="http://www.w3.org/1999/xlink" x="0px" y="0px"
	 viewBox="0 0 18.74 18.74" style="enable-background:new 0 0 18.74 18.74;" xml:space="preserve">
<g>
	<g>
		<path d="M14.898,10.031l0.014-0.004c0,0-0.265-1.847-1.845-1.746c0,0-0.963,0.184-2.291,0.201v1.444H9.998
			V8.472C9.764,8.463,9.522,8.447,9.276,8.424v1.308H8.498V8.325c-0.23-0.037-0.462-0.083-0.694-0.137V9.37H7.027V7.969
			C6.663,7.848,6.306,7.702,5.965,7.524c-0.238-0.125-1.498-3.61-1.718-3.766L0,5.098l0.62,3.815
			c-1.271,1.539,1.27,4.992,1.27,4.992L1.903,13.9c-0.003,0.01-0.009,0.021-0.006,0.03l0.32,1.002
			c0.018,0.058,0.159,0.066,0.312,0.02l2.567-0.789c0,0-0.586-1.495,0.701-1.892c0.328-0.108,0.672-0.002,0.672-0.002
			c0.948,0.222,2.104,0.824,2.104,0.824l6.373-1.96c0.152-0.046,0.264-0.133,0.246-0.191l-0.274-0.89
			C14.916,10.044,14.906,10.038,14.898,10.031z"/>
		<path d="M17.479,8.726l1.261-0.388L17.446,8.08c-0.868-0.173-1.453-0.527-1.738-1.051
			c-0.427-0.783-0.063-1.728-0.06-1.736l0.386-0.96l-0.873,0.554c-0.669,0.424-1.288,0.554-1.84,0.385
			c-0.969-0.296-1.467-1.415-1.472-1.427L11.238,4.11c0.024,0.058,0.619,1.408,1.883,1.798c0.547,0.169,1.129,0.131,1.732-0.112
			c-0.049,0.438-0.025,1.008,0.266,1.547c0.277,0.513,0.74,0.899,1.382,1.155c-0.305,0.225-0.617,0.556-0.771,1.02
			c-0.25,0.75-0.016,1.62,0.693,2.589l0.537-0.394c-0.572-0.783-0.774-1.449-0.6-1.981C16.597,9.011,17.471,8.728,17.479,8.726z"/>
	</g>
</g>
<g>
</g>
<g>
</g>
<g>
</g>
<g>
</g>
<g>
</g>
<g>
</g>
<g>
</g>
<g>
</g>
<g>
</g>
<g>
</g>
<g>
</g>
<g>
</g>
<g>
</g>
<g>
</g>
<g>
</g>
</svg>
