<svg xmlns="http://www.w3.org/2000/svg" width="22.583" height="33.875" viewBox="0 0 22.583 33.875">
  <g id="lock" transform="translate(-85.333)">
    <path id="Caminho_140" data-name="Caminho 140" d="M116.547,0a9.891,9.891,0,0,0-9.88,9.88v6.352a.706.706,0,0,0,.706.706H110.2a.706.706,0,0,0,.706-.706V9.88a5.646,5.646,0,0,1,11.292,0v6.352a.706.706,0,0,0,.706.706h2.823a.706.706,0,0,0,.706-.706V9.88A9.892,9.892,0,0,0,116.547,0Z" transform="translate(-19.923)" fill="#455a64"/>
    <path id="Caminho_141" data-name="Caminho 141" d="M105.8,234.667H87.45a2.117,2.117,0,0,0-2.117,2.117v12.7a3.529,3.529,0,0,0,3.529,3.529h15.526a3.529,3.529,0,0,0,3.529-3.529v-12.7A2.117,2.117,0,0,0,105.8,234.667Z" transform="translate(0 -219.141)" fill="#ffc107"/>
    <path id="Caminho_142" data-name="Caminho 142" d="M218.046,303.564a2.783,2.783,0,0,0,.916-2.075,2.823,2.823,0,0,0-5.646,0,2.783,2.783,0,0,0,.916,2.075l-.881,2.642a.706.706,0,0,0,.67.929h4.234a.706.706,0,0,0,.67-.929Z" transform="translate(-119.515 -278.906)" fill="#455a64"/>
  </g>
</svg>
