<svg id="crown" xmlns="http://www.w3.org/2000/svg" width="44.5" height="28.459" viewBox="0 0 44.5 28.459">
  <path id="Caminho_93" data-name="Caminho 93" d="M67.152,71.138H38.774a1.31,1.31,0,0,1-1.083-.572c-3.744-5.49-4.031-16.052-4.053-17.62,0-.061,0-.124,0-.185a1.311,1.311,0,0,1,1.308-1.31h0a1.311,1.311,0,0,1,1.31,1.305c0,.009,0,.086,0,.223a6.945,6.945,0,0,0,13.886-.218,1.311,1.311,0,0,1,1.31-1.31h3.01a1.31,1.31,0,0,1,1.31,1.31,6.945,6.945,0,0,0,13.886.208c0-.131,0-.2,0-.213a1.31,1.31,0,0,1,1.31-1.306h0a1.311,1.311,0,0,1,1.308,1.31c0,.062,0,.124,0,.186-.022,1.567-.309,12.13-4.053,17.62a1.311,1.311,0,0,1-1.083.572Zm0,0" transform="translate(-30.713 -46.978)" fill="#dedede"/>
  <path id="Caminho_94" data-name="Caminho 94" d="M274.022,51.449h0a1.311,1.311,0,0,0-1.31,1.305c0,.009,0,.082,0,.213a6.945,6.945,0,0,1-13.886-.208,1.311,1.311,0,0,0-1.311-1.31H256V71.137h14.188a1.31,1.31,0,0,0,1.083-.572c3.744-5.49,4.031-16.052,4.053-17.62,0-.061,0-.124,0-.185a1.311,1.311,0,0,0-1.308-1.31Zm0,0" transform="translate(-233.754 -46.978)" fill="#bcbcbc"/>
  <path id="Caminho_95" data-name="Caminho 95" d="M211.516,0a4.234,4.234,0,1,0,4.234,4.234A4.239,4.239,0,0,0,211.516,0Zm0,0" transform="translate(-189.266 0)" fill="#bcbcbc"/>
  <path id="Caminho_96" data-name="Caminho 96" d="M256,0V8.469A4.234,4.234,0,0,0,256,0Zm0,0" transform="translate(-233.754 0)" fill="#777"/>
  <path id="Caminho_97" data-name="Caminho 97" d="M4.234,37.6a4.234,4.234,0,1,0,4.234,4.234A4.239,4.239,0,0,0,4.234,37.6Zm0,0" transform="translate(0 -34.33)" fill="#bcbcbc"/>
  <path id="Caminho_98" data-name="Caminho 98" d="M418.8,37.6a4.234,4.234,0,1,0,4.234,4.234A4.239,4.239,0,0,0,418.8,37.6Zm0,0" transform="translate(-378.535 -34.33)" fill="#777"/>
  <path id="Caminho_99" data-name="Caminho 99" d="M107.36,272.617H78.982a1.31,1.31,0,0,1-1.311-1.31V267.4h31v3.908a1.31,1.31,0,0,1-1.31,1.31Zm0,0" transform="translate(-70.921 -244.158)" fill="#bcbcbc"/>
  <path id="Caminho_100" data-name="Caminho 100" d="M256,272.617h14.188a1.31,1.31,0,0,0,1.31-1.31V267.4H256Zm0,0" transform="translate(-233.754 -244.158)" fill="#777"/>
</svg>
