<svg xmlns="http://www.w3.org/2000/svg" width="88.427" height="74.38" viewBox="0 0 88.427 74.38">
  <g id="Isolation_Mode" transform="translate(-0.1 -0.081)">
    <path id="Path_211" data-name="Path 211" d="M.1,161.718a2.854,2.854,0,0,0,.382-1.147,15.264,15.264,0,0,1,3.459-7.247,16.389,16.389,0,0,1,7.392-5.1,15.235,15.235,0,0,1,4.588-.838c3.842-.091,7.665-.018,11.507-.036H28.3c.473,0,.655.146.692.619a15.758,15.758,0,0,0,.492,3.059,16.3,16.3,0,0,0,3.55,6.573c.237.273.492.528.728.8,0,.018.018.018.036.055-.346.127-.692.255-1.02.382a20.259,20.259,0,0,0-9.723,7.647,18.034,18.034,0,0,0-2.895,7.174A27.117,27.117,0,0,0,19.8,177.7c-.018.983,0,1.985.018,2.968.018.51-.164.71-.692.692-.892-.036-1.8-.127-2.695-.218-1.566-.164-3.132-.382-4.679-.655a79.84,79.84,0,0,1-9.176-2.148c-.783-.237-1.566-.455-2.349-.674-.036-.018-.073,0-.109-.018Q.091,169.675.1,161.718Z" transform="translate(0 -120.449)"/>
    <path id="Path_212" data-name="Path 212" d="M149.744,254.551h-2.895c-1.584-.036-3.15-.127-4.716-.273q-2.7-.246-5.353-.71a89.457,89.457,0,0,1-11.052-2.64c-.036-.018-.073-.018-.109-.036a1.016,1.016,0,0,1-.819-1.147c.018-.728.036-1.438.036-2.167,0-3.368.018-6.719,0-10.087a16.879,16.879,0,0,1,1.02-6.227,16.383,16.383,0,0,1,11.234-10.324,15.518,15.518,0,0,1,4.206-.564c2.786-.036,5.571-.146,8.357-.109a44.017,44.017,0,0,1,5.571.346,14.6,14.6,0,0,1,6.008,2.24,16.913,16.913,0,0,1,6.9,8.557,14.7,14.7,0,0,1,.892,4.843c.036,1.748,0,3.5.018,5.244,0,2.385,0,4.752.018,7.137,0,.255.018.528.036.783a1.4,1.4,0,0,1-.947,1.475,37.615,37.615,0,0,1-4.406,1.639,46.342,46.342,0,0,1-7.228,1.511C154.259,254.315,152,254.5,149.744,254.551Z" transform="translate(-101.995 -180.09)"/>
    <path id="Path_213" data-name="Path 213" d="M307.7,158.322c.437-.455.838-.892,1.22-1.366a16.144,16.144,0,0,0,3.35-6.973,12.447,12.447,0,0,0,.146-1.639c.055-.819.182-1.165,1.238-1.147,1.529.018,3.077.036,4.606.036,1.8,0,3.605-.018,5.408.018a16.61,16.61,0,0,1,7.174,1.693,16.114,16.114,0,0,1,8.375,9.559,16.945,16.945,0,0,1,.874,5.317c.055,3.951.018,7.92.018,11.871v.783a1.144,1.144,0,0,1-.747,1.165,32.715,32.715,0,0,1-3.113,1.256,43.806,43.806,0,0,1-8.048,1.894c-1.675.255-3.35.364-5.025.51-.291.018-.6.073-.892.073-.346.018-.51-.127-.546-.492a16.078,16.078,0,0,1,.018-2.094,21.427,21.427,0,0,0-2.24-10.56,19.017,19.017,0,0,0-3.55-4.934,20.5,20.5,0,0,0-6.755-4.388C308.756,158.722,308.246,158.54,307.7,158.322Z" transform="translate(-251.594 -120.329)"/>
    <path id="Path_214" data-name="Path 214" d="M201.336,86.467A12.974,12.974,0,1,1,188.7,73.485,13.036,13.036,0,0,1,201.336,86.467Z" transform="translate(-143.373 -60.036)"/>
    <path id="Path_215" data-name="Path 215" d="M62.933,26.055a12.756,12.756,0,0,1-8.63-3.641,12.286,12.286,0,0,1-3.824-7.3A12.678,12.678,0,0,1,54.321,3.678,12.39,12.39,0,0,1,61.8.219a12.666,12.666,0,0,1,10.36,3.423A12.616,12.616,0,0,1,76.115,11.2a10.092,10.092,0,0,1,.127,1.821,1.762,1.762,0,0,1-.692,1.347A16.112,16.112,0,0,0,71.873,18.9a14.568,14.568,0,0,0-1.529,4.406,1.46,1.46,0,0,1-.765,1.092,13.906,13.906,0,0,1-3.569,1.366A13.253,13.253,0,0,1,62.933,26.055Z" transform="translate(-41.075 -0.043)"/>
    <path id="Path_216" data-name="Path 216" d="M306.45,26.012a13.6,13.6,0,0,1-4.934-.929,1.241,1.241,0,0,1-.819-1.056,15.492,15.492,0,0,0-2.549-6.591,15.244,15.244,0,0,0-3.878-3.915A1.984,1.984,0,0,1,293.4,11.5a12.741,12.741,0,0,1,3.751-7.647A12.556,12.556,0,0,1,304.466.212,12.684,12.684,0,0,1,315.281,3.69a12.264,12.264,0,0,1,3.86,7.52,12.6,12.6,0,0,1-3.787,11.052A12.616,12.616,0,0,1,307.8,25.9l-.492.055C306.978,25.994,306.65,26.012,306.45,26.012Z" transform="translate(-239.875 0)"/>
  </g>
</svg>

