<svg xmlns="http://www.w3.org/2000/svg" width="59.891" height="59.892" viewBox="0 0 59.891 59.892">
  <path id="_003-globe" data-name="003-globe" d="M51.115,8.775a29.939,29.939,0,1,0,0,42.34A29.922,29.922,0,0,0,51.115,8.775ZM49.864,46.848a30.01,30.01,0,0,0-4.472-3.312A48.42,48.42,0,0,0,47.2,31.853H56A25.887,25.887,0,0,1,49.864,46.848ZM3.891,31.853h8.8A48.421,48.421,0,0,0,14.5,43.536a30.01,30.01,0,0,0-4.472,3.312A25.887,25.887,0,0,1,3.891,31.853Zm6.136-18.81A30.01,30.01,0,0,0,14.5,16.355a48.421,48.421,0,0,0-1.806,11.683h-8.8A25.888,25.888,0,0,1,10.027,13.043Zm18.011,3.706A25.92,25.92,0,0,1,19.145,14.5c1.618-4.166,4.6-9.162,8.893-10.4Zm0,3.823v7.466H16.511a44.953,44.953,0,0,1,1.447-9.892A29.738,29.738,0,0,0,28.038,20.572Zm0,11.281v7.466a29.738,29.738,0,0,0-10.08,2.426,44.953,44.953,0,0,1-1.447-9.892Zm0,11.288V55.794c-4.293-1.238-7.275-6.234-8.893-10.4A25.92,25.92,0,0,1,28.038,43.142Zm3.816,0a25.92,25.92,0,0,1,8.893,2.253c-1.618,4.166-4.6,9.161-8.893,10.4Zm0-3.823V31.853H43.381a44.953,44.953,0,0,1-1.447,9.892,29.738,29.738,0,0,0-10.08-2.426Zm0-11.281V20.572a29.738,29.738,0,0,0,10.08-2.426,44.953,44.953,0,0,1,1.447,9.892Zm0-11.288V4.1c4.293,1.238,7.275,6.234,8.893,10.4A25.922,25.922,0,0,1,31.853,16.749ZM40.423,6a26.008,26.008,0,0,1,6.763,4.319,26.223,26.223,0,0,1-3.069,2.33A28.725,28.725,0,0,0,40.423,6ZM15.774,12.65A26.233,26.233,0,0,1,12.7,10.32,26.008,26.008,0,0,1,19.468,6a28.734,28.734,0,0,0-3.694,6.648Zm0,34.592a28.727,28.727,0,0,0,3.694,6.648,26.008,26.008,0,0,1-6.763-4.319A26.223,26.223,0,0,1,15.774,47.241Zm28.342,0a26.234,26.234,0,0,1,3.069,2.329,26.008,26.008,0,0,1-6.763,4.319,28.723,28.723,0,0,0,3.694-6.648Zm3.081-19.2a48.42,48.42,0,0,0-1.806-11.683,30.016,30.016,0,0,0,4.472-3.312A25.888,25.888,0,0,1,56,28.038Z" transform="translate(0 0)"/>
</svg>

