<svg xmlns="http://www.w3.org/2000/svg" width="83.668" height="82.558" viewBox="0 0 83.668 82.558">
  <g id="Feira_de_Emprego" transform="translate(0 0)">
    <path id="Path_156" data-name="Path 156" d="M83.308,206.394l-14-18.19a1.635,1.635,0,0,0-2.178-.377l-9.038,5.747H46.306a1.5,1.5,0,0,0-.458.082l-9.136,2.636-9.48-2.587L18,187.827a1.648,1.648,0,0,0-2.161.36L.348,207.36a1.643,1.643,0,0,0,.213,2.276l8.121,6.991,7.286,9.807a5.8,5.8,0,0,0,3.651,9.742,5.358,5.358,0,0,0-.065.884,5.814,5.814,0,0,0,5.8,5.8h.065v.115a5.814,5.814,0,0,0,5.8,5.8,8.044,8.044,0,0,0,.9-.065,5.859,5.859,0,0,0,1.67,3.536,5.771,5.771,0,0,0,8.186,0l.884-.884.377.295a5.792,5.792,0,0,0,8.121-.082,5.825,5.825,0,0,0,1.7-4.191,5.789,5.789,0,0,0,5.894-5.878,5.694,5.694,0,0,0,4.191-1.7,5.826,5.826,0,0,0,1.7-4.191,5.807,5.807,0,0,0,4.961-8.956l5.321-11.133,7.99-6.877A1.664,1.664,0,0,0,83.308,206.394ZM17.474,191.38l6.631,4.208L9.68,213.156,3.9,208.178Zm.933,37.248,2-2a1.729,1.729,0,0,1,.2-.164,2.623,2.623,0,0,1,1.359-.557h.049c.065,0,.147-.016.213-.016a2.514,2.514,0,0,1,1.686,4.355l-1.932,1.932a2.518,2.518,0,0,1-3.569-3.553Zm5.141,10.2a2.53,2.53,0,0,1,0-3.569l3.88-3.88a2.548,2.548,0,0,1,2.865-.491,2.517,2.517,0,0,1,1.392,2.6,2.7,2.7,0,0,1-.753,1.523l-3.815,3.815a2.53,2.53,0,0,1-3.569,0Zm5.861,5.927a2.53,2.53,0,0,1,0-3.569l3.88-3.88a2.55,2.55,0,0,1,3.045-.393,2.5,2.5,0,0,1,1.2,2.538,2.562,2.562,0,0,1-.753,1.474l-3.815,3.815a2.514,2.514,0,0,1-1.785.737A2.422,2.422,0,0,1,29.409,244.755Zm6.68,5.157a2.51,2.51,0,0,1,0-3.553l2-2a1.734,1.734,0,0,1,.2-.164h0a2.588,2.588,0,0,1,1.113-.524h.033c.065-.016.147-.016.213-.033H39.9a2.571,2.571,0,0,1,1.8.786,1.734,1.734,0,0,1,.164.2,2.6,2.6,0,0,1-.278,3.389l-1.932,1.932A2.56,2.56,0,0,1,36.089,249.912Zm30.6-18.321a2.51,2.51,0,0,1-3.553,0,.712.712,0,0,0-.115-.1L52.479,220.834a1.644,1.644,0,0,0-2.341,2.309L60.8,233.916h0a2.518,2.518,0,0,1-3.569,3.553l-7.139-7.2a1.644,1.644,0,1,0-2.341,2.309l7.024,7.089c.033.049.082.082.115.131a2.512,2.512,0,0,1-3.553,3.553l-3.9-3.929a1.644,1.644,0,1,0-2.341,2.309l3.782,3.831c.033.049.082.082.115.131a2.512,2.512,0,0,1-3.553,3.553,3.325,3.325,0,0,0-.377-.295c-.115-.082-.131-.131-.082-.262a4.134,4.134,0,0,1,.2-.377,3.778,3.778,0,0,0,.164-.458,5.991,5.991,0,0,0,.213-2.521,5.7,5.7,0,0,0-2.456-3.995,5.943,5.943,0,0,0-2.44-.95,5.764,5.764,0,0,0-5.534-7.089h-.18a5.755,5.755,0,0,0-5.681-5.911,6.475,6.475,0,0,0-1.392.147,5.8,5.8,0,0,0-1.916-3.52,5.686,5.686,0,0,0-3.7-1.408,5.8,5.8,0,0,0-3.962,1.49l-6.336-8.547,15.178-18.485,4.83,1.326-6.32,11.15a5.807,5.807,0,0,0,2.194,7.908,1.306,1.306,0,0,0,.262.131.016.016,0,0,1,.016.016,6.192,6.192,0,0,0,.688.295,5.824,5.824,0,0,0,6.942-2.636l4.11-7.237,7.335.524,19.516,19.516A2.505,2.505,0,0,1,66.69,231.591Zm.671-7.515-18.3-18.3a.712.712,0,0,0-.115-.1,1.626,1.626,0,0,0-.933-.377l-8.972-.639a1.642,1.642,0,0,0-1.539.835l-4.6,8.137a2.457,2.457,0,0,1-1.523,1.179,2.52,2.52,0,0,1-1.916-.229,2.457,2.457,0,0,1-1.179-1.523,2.52,2.52,0,0,1,.229-1.916l6.156-10.871,2.489-.72c.016,0,.033-.016.049-.016l9.316-2.685H57.783l14.048,17.863Zm6.631-11.936-13-16.52,6.631-4.224,12.149,15.767Z" transform="translate(0.014 -171.382)"/>
    <path id="Path_157" data-name="Path 157" d="M547.628,73.482a1.677,1.677,0,0,0,1.162-.475l11.2-11.2a1.644,1.644,0,1,0-2.325-2.325l-11.2,11.2a1.65,1.65,0,0,0,0,2.325A1.677,1.677,0,0,0,547.628,73.482Z" transform="translate(-496.936 -54.368)"/>
    <path id="Path_158" data-name="Path 158" d="M235.8,73.007a1.608,1.608,0,0,0,1.162.475,1.677,1.677,0,0,0,1.162-.475,1.65,1.65,0,0,0,0-2.325l-11.2-11.2a1.644,1.644,0,0,0-2.325,2.325Z" transform="translate(-203.991 -54.368)"/>
    <path id="Path_159" data-name="Path 159" d="M449.07,92.932a1.642,1.642,0,0,0,1.637-1.637V82.011a1.637,1.637,0,1,0-3.274,0v9.267A1.646,1.646,0,0,0,449.07,92.932Z" transform="translate(-407.236 -73.818)"/>
    <path id="Path_160" data-name="Path 160" d="M447.637,9.645a1.654,1.654,0,0,0,1.588,1.015,1.637,1.637,0,0,0,.917-2.931,1.676,1.676,0,0,0-1.916-.065A1.645,1.645,0,0,0,447.637,9.645Z" transform="translate(-407.31 -7.395)"/>
  </g>
</svg>

