<svg id="Matchmaking" xmlns="http://www.w3.org/2000/svg" width="80" height="80" viewBox="0 0 80 80">
  <g id="Group_79" data-name="Group 79" transform="translate(51.719 37.656)">
    <g id="Group_78" data-name="Group 78">
      <path id="Path_171" data-name="Path 171" d="M342.719,241a11.719,11.719,0,1,0,11.719,11.719A11.723,11.723,0,0,0,342.719,241Z" transform="translate(-331 -241)"/>
    </g>
  </g>
  <g id="Group_81" data-name="Group 81" transform="translate(47.031 61.094)">
    <g id="Group_80" data-name="Group 80">
      <path id="Path_172" data-name="Path 172" d="M328.859,391a16.336,16.336,0,0,1-22.906,0A16.355,16.355,0,0,0,301,402.719v4.844a2.341,2.341,0,0,0,2.344,2.344h28.281a2.341,2.341,0,0,0,2.344-2.344v-4.844A16.5,16.5,0,0,0,328.859,391Z" transform="translate(-301 -391)"/>
    </g>
  </g>
  <g id="Group_83" data-name="Group 83" transform="translate(4.844)">
    <g id="Group_82" data-name="Group 82">
      <path id="Path_173" data-name="Path 173" d="M42.719,0A11.857,11.857,0,0,0,31,11.875a11.719,11.719,0,0,0,23.438,0A11.857,11.857,0,0,0,42.719,0Z" transform="translate(-31)"/>
    </g>
  </g>
  <g id="Group_85" data-name="Group 85" transform="translate(0 23.594)">
    <g id="Group_84" data-name="Group 84">
      <path id="Path_174" data-name="Path 174" d="M28.016,151a16.336,16.336,0,0,1-22.906,0A16.5,16.5,0,0,0,0,162.719v4.688a2.341,2.341,0,0,0,2.344,2.344H30.625a2.341,2.341,0,0,0,2.344-2.344v-4.687A16.355,16.355,0,0,0,28.016,151Z" transform="translate(0 -151)"/>
    </g>
  </g>
  <g id="Group_87" data-name="Group 87" transform="translate(32.594 9.531)">
    <g id="Group_86" data-name="Group 86">
      <path id="Path_175" data-name="Path 175" d="M216.006,61a30.691,30.691,0,0,0-7.172.922,14.131,14.131,0,0,1,.141,1.422,16.549,16.549,0,0,1-.375,3.438,25.721,25.721,0,0,1,32.219,17.8,16.2,16.2,0,0,1,5.094,1.2A30.472,30.472,0,0,0,216.006,61Z" transform="translate(-208.6 -61)"/>
    </g>
  </g>
  <g id="Group_89" data-name="Group 89" transform="translate(10.391 47.031)">
    <g id="Group_88" data-name="Group 88">
      <path id="Path_176" data-name="Path 176" d="M96.109,319.75A25.819,25.819,0,0,1,71.328,301H66.5a30.473,30.473,0,0,0,29.609,23.438c.875,0,1.734-.062,2.594-.125a21.363,21.363,0,0,1,1.141-4.859A26.946,26.946,0,0,1,96.109,319.75Z" transform="translate(-66.5 -301)"/>
    </g>
  </g>
</svg>

