<svg xmlns="http://www.w3.org/2000/svg" width="52.96" height="80.22" viewBox="0 0 52.96 80.22">
  <g id="speakers" transform="translate(-86.8 -0.1)">
    <path id="Path_209" data-name="Path 209" d="M181.761,13.311a12.322,12.322,0,0,0-1.5-4.733,15.324,15.324,0,0,0-3.808-4.811A16.112,16.112,0,0,0,170.886.711c-.815-.251-1.645-.3-2.429-.611h-6.9c-.94.235-1.9.392-2.789.705a15.442,15.442,0,0,0-7.71,5.673,14.61,14.61,0,0,0-2.946,8.682c-.031,8.776,0,17.536-.016,26.312a16.384,16.384,0,0,0,.3,3.385A15.329,15.329,0,0,0,156.562,55.7a13.868,13.868,0,0,0,5.422,1.614,26.746,26.746,0,0,0,6.989-.094,15.236,15.236,0,0,0,9.544-5.673,14.957,14.957,0,0,0,3.416-9.387c.047-5.093.047-10.17,0-15.264C181.871,22.368,182.137,17.824,181.761,13.311Zm-10.7,11.064c2.069.016,4.121.031,6.19-.016.643-.016.784.188.768.784-.047,1.222-.047,2.46,0,3.683.031.611-.2.737-.752.721-1.959-.031-3.918-.016-5.877-.016a1.763,1.763,0,0,0-2.006,1.755c-.016,1.442.627,2.147,2.006,2.147,1.99.016,3.965.016,5.955,0,.5,0,.69.11.674.643-.031,1.222-.031,2.46,0,3.683.016.548-.141.721-.69.705-1.912-.031-3.808-.016-5.72-.016A2,2,0,0,0,169.4,40.7a1.646,1.646,0,0,0,1.692,1.645q3.173.024,6.347,0c.517,0,.643.172.564.643a12.292,12.292,0,0,1-2.507,5.955,11.738,11.738,0,0,1-7.569,4.388,22.63,22.63,0,0,1-4.827.11,11.408,11.408,0,0,1-7.177-3.024,11.135,11.135,0,0,1-3.636-6.315c-.345-1.912-.878-1.755,1.316-1.755h4.936c1.348,0,2.069-.6,2.084-1.724a1.974,1.974,0,0,0-2.131-2.178c-1.912-.016-3.808-.031-5.72.016-.627.016-.8-.188-.768-.784q.071-1.763,0-3.526c-.031-.611.188-.737.752-.721,1.912.031,3.808.031,5.72,0,1.959-.016,2.335-1.254,2.131-2.648a1.87,1.87,0,0,0-1.849-1.269c-2.006,0-4.027-.031-6.033.016-.6.016-.752-.188-.737-.752.047-1.222.047-2.46,0-3.683-.031-.658.219-.768.8-.768,1.912.031,3.808.016,5.72.016,1.41,0,2.1-.58,2.116-1.771a1.974,1.974,0,0,0-2.178-2.131c-1.881-.016-3.761-.031-5.642.016-.674.016-.831-.2-.815-.831.047-1.457-.016-2.93.031-4.388a11.582,11.582,0,0,1,2.586-6.88,12.305,12.305,0,0,1,3.322-2.852c.5-.313.69-.282.674.376-.031,1.442.047,2.868-.031,4.31a1.9,1.9,0,0,0,1.943,2.1,1.987,1.987,0,0,0,1.99-2.116c.016-1.834.031-3.651,0-5.485-.016-.533.125-.721.69-.705,1.222.047,2.46.031,3.683,0,.5-.016.674.141.658.658-.031,1.849-.031,3.7,0,5.563a2.01,2.01,0,0,0,1.191,1.928,1.943,1.943,0,0,0,2.1-.3,1.639,1.639,0,0,0,.627-1.426V5.177a11.583,11.583,0,0,1,4.733,4.215,12.2,12.2,0,0,1,1.865,7.068c-.031,1.1-.047,2.194,0,3.291.031.611-.188.737-.752.737-1.881-.031-3.761-.016-5.642-.016a2.017,2.017,0,0,0-2.241,2.241A1.593,1.593,0,0,0,171.058,24.374Z" transform="translate(-51.694)"/>
    <path id="Path_210" data-name="Path 210" d="M100.935,223.547c-1.348-1.019-1.614-2.069-.768-3.15a2.528,2.528,0,0,1,2.1-.768q4.114-.024,8.227,0c.58,0,.815-.11.8-.768-.031-2.711-.016-5.422-.016-8.149,0-.407-.016-.627-.548-.69a31.236,31.236,0,0,1-5.2-1.05,27.332,27.332,0,0,1-8.494-4.435,26.567,26.567,0,0,1-6.1-6.739,25.324,25.324,0,0,1-3.636-9.434c-.752-4.513-.407-9.073-.454-13.618a11.94,11.94,0,0,1,.141-3.338,1.873,1.873,0,0,1,2.084-1.442,1.825,1.825,0,0,1,1.677,1.865c0,3.4-.016,6.786,0,10.186a26.235,26.235,0,0,0,1.379,9.2,23.423,23.423,0,0,0,3.918,6.848,22.874,22.874,0,0,0,10.782,7.193,22.048,22.048,0,0,0,8.682.846,21.277,21.277,0,0,0,10.39-3.777,22.291,22.291,0,0,0,7.068-7.773,23.888,23.888,0,0,0,2.523-7.224,22.974,22.974,0,0,0,.329-4.012c.047-3.714.016-7.412.016-11.126,0-1.3.737-2.241,1.833-2.21,1.238.047,1.99.627,2.053,2.194.078,1.928.016,3.855.016,5.8v4.7a27.923,27.923,0,0,1-3.244,13.681,29.311,29.311,0,0,1-3.26,4.67,25.724,25.724,0,0,1-8.666,6.613,22.78,22.78,0,0,1-8.1,2.288c-1.144.094-1.144.094-1.144,1.285,0,2.507.031,5.015-.016,7.522-.016.784.235.94.956.925,2.7-.047,5.375-.031,8.071-.016a2.481,2.481,0,0,1,2.1.768c.846,1.081.58,2.131-.768,3.15Q113.323,223.539,100.935,223.547Z" transform="translate(0 -143.243)"/>
  </g>
</svg>

