<svg xmlns="http://www.w3.org/2000/svg" width="81.132" height="81.14" viewBox="0 0 81.132 81.14">
  <g id="Workshops" transform="translate(0.047 -0.1)">
    <g id="Group_91" data-name="Group 91" transform="translate(-0.047 27.446)">
      <g id="Group_90" data-name="Group 90">
        <path id="Path_177" data-name="Path 177" d="M52.068,203.722c-.856-.507-1.727-1.03-2.6-1.537a22.607,22.607,0,0,0,0-5.277c.872-.507,1.759-1.03,2.6-1.537a3.411,3.411,0,0,0,1.379-4.215h0l-1.854-4.5a3.415,3.415,0,0,0-3.962-2c-.967.238-1.949.491-2.932.761a23.192,23.192,0,0,0-3.74-3.74c.269-.983.523-1.965.761-2.932a3.432,3.432,0,0,0-2-3.962l-4.5-1.87a3.429,3.429,0,0,0-4.215,1.379c-.507.856-1.03,1.727-1.537,2.6a22.6,22.6,0,0,0-5.277,0c-.507-.887-1.03-1.759-1.537-2.6a3.411,3.411,0,0,0-4.215-1.379l-4.5,1.87a3.415,3.415,0,0,0-2,3.962c.238.967.491,1.949.761,2.932a23.192,23.192,0,0,0-3.74,3.74c-.983-.269-1.965-.523-2.932-.761a3.432,3.432,0,0,0-3.962,2L.214,191.171a3.429,3.429,0,0,0,1.379,4.215c.856.507,1.727,1.03,2.6,1.537a22.607,22.607,0,0,0,0,5.277c-.872.507-1.759,1.014-2.6,1.537a3.411,3.411,0,0,0-1.379,4.215l1.87,4.5a3.415,3.415,0,0,0,3.962,2c.967-.238,1.949-.491,2.932-.761a23.191,23.191,0,0,0,3.74,3.74c-.269.983-.523,1.965-.761,2.932a3.432,3.432,0,0,0,2,3.962l4.5,1.87a3.311,3.311,0,0,0,1.284.254,3.427,3.427,0,0,0,2.932-1.648c.507-.84,1.03-1.727,1.537-2.6a22.607,22.607,0,0,0,5.277,0c.507.872,1.014,1.743,1.537,2.6a3.411,3.411,0,0,0,4.215,1.379l4.5-1.87a3.415,3.415,0,0,0,2-3.962c-.238-.951-.491-1.933-.761-2.932a23.19,23.19,0,0,0,3.74-3.74c.983.269,1.965.523,2.932.761a3.432,3.432,0,0,0,3.962-2l1.87-4.5A3.448,3.448,0,0,0,52.068,203.722Zm-3.756,7.147c-.919-.238-1.87-.475-2.805-.729a3.377,3.377,0,0,0-3.566,1.189,19.452,19.452,0,0,1-3.328,3.328,3.4,3.4,0,0,0-1.189,3.566c.254.951.491,1.886.729,2.805l-4.136,1.712c-.491-.824-.983-1.664-1.474-2.5a3.385,3.385,0,0,0-3.36-1.68,19.487,19.487,0,0,1-4.707,0,3.372,3.372,0,0,0-3.36,1.68c-.491.84-.983,1.68-1.474,2.5l-4.136-1.712c.238-.919.475-1.87.729-2.805a3.377,3.377,0,0,0-1.189-3.566,18.9,18.9,0,0,1-3.328-3.328,3.4,3.4,0,0,0-3.566-1.189c-.935.254-1.886.491-2.805.729l-1.712-4.136c.824-.491,1.664-.983,2.5-1.474a3.385,3.385,0,0,0,1.68-3.36,19.487,19.487,0,0,1,0-4.707,3.372,3.372,0,0,0-1.68-3.36c-.84-.491-1.68-.983-2.5-1.474l1.727-4.12c.919.238,1.87.475,2.805.729a3.377,3.377,0,0,0,3.566-1.189,19.451,19.451,0,0,1,3.328-3.328,3.4,3.4,0,0,0,1.189-3.566c-.254-.935-.491-1.886-.729-2.805l4.136-1.712c.491.808.983,1.648,1.474,2.5a3.385,3.385,0,0,0,3.36,1.68,19.488,19.488,0,0,1,4.707,0,3.372,3.372,0,0,0,3.36-1.68c.491-.84.983-1.68,1.474-2.5l4.136,1.712c-.238.919-.475,1.87-.729,2.805a3.377,3.377,0,0,0,1.189,3.566,18.9,18.9,0,0,1,3.328,3.328,3.4,3.4,0,0,0,3.566,1.189c.935-.254,1.886-.491,2.805-.729l1.712,4.136c-.824.491-1.664.983-2.5,1.474a3.385,3.385,0,0,0-1.68,3.36,19.486,19.486,0,0,1,0,4.707,3.372,3.372,0,0,0,1.68,3.36c.84.475,1.68.983,2.5,1.474Z" transform="translate(0.047 -172.653)"/>
      </g>
    </g>
    <g id="Group_93" data-name="Group 93" transform="translate(14.46 41.961)">
      <g id="Group_92" data-name="Group 92">
        <path id="Path_178" data-name="Path 178" d="M115.311,271.9h0a12.4,12.4,0,1,0-6.7,16.18A12.4,12.4,0,0,0,115.311,271.9Zm-8.1,12.821a8.747,8.747,0,1,1-6.688-16.165,8.544,8.544,0,0,1,3.328-.666,8.748,8.748,0,0,1,3.36,16.83Z" transform="translate(-91.491 -264.249)"/>
      </g>
    </g>
    <g id="Group_95" data-name="Group 95" transform="translate(39.881 0.1)">
      <g id="Group_94" data-name="Group 94">
        <path id="Path_179" data-name="Path 179" d="M290.679,16.074c-.634-.1-1.268-.19-1.918-.269a17,17,0,0,0-1.3-3.138c.4-.523.792-1.046,1.173-1.553a2.889,2.889,0,0,0-.285-3.74l-2.52-2.5a2.891,2.891,0,0,0-3.74-.285c-.507.38-1.03.777-1.553,1.173a16.384,16.384,0,0,0-3.138-1.3c-.079-.65-.174-1.3-.269-1.918A2.883,2.883,0,0,0,274.277.1h-3.55a2.907,2.907,0,0,0-2.853,2.441c-.1.634-.19,1.268-.269,1.918a17,17,0,0,0-3.138,1.3c-.523-.4-1.03-.792-1.553-1.173a2.889,2.889,0,0,0-3.74.285l-2.5,2.5a2.891,2.891,0,0,0-.285,3.74c.38.507.777,1.03,1.173,1.553a16.383,16.383,0,0,0-1.3,3.138c-.65.079-1.3.174-1.918.269a2.883,2.883,0,0,0-2.441,2.853v3.55a2.907,2.907,0,0,0,2.441,2.853c.634.1,1.268.19,1.918.269a17,17,0,0,0,1.3,3.138c-.4.523-.792,1.046-1.173,1.553a2.889,2.889,0,0,0,.285,3.74l2.5,2.5a2.891,2.891,0,0,0,3.74.285c.507-.38,1.03-.777,1.553-1.173a16.385,16.385,0,0,0,3.138,1.3c.079.65.174,1.3.269,1.918a2.883,2.883,0,0,0,2.853,2.441h3.55a2.907,2.907,0,0,0,2.853-2.441c.1-.634.19-1.268.269-1.918a17,17,0,0,0,3.138-1.3c.523.4,1.03.792,1.553,1.173a2.889,2.889,0,0,0,3.74-.285l2.5-2.5a2.891,2.891,0,0,0,.285-3.74c-.38-.507-.777-1.03-1.173-1.553a16.385,16.385,0,0,0,1.3-3.138c.65-.079,1.3-.174,1.918-.269a2.883,2.883,0,0,0,2.441-2.853v-3.55A2.879,2.879,0,0,0,290.679,16.074Zm-1.014,5.9-1.727.238a2.872,2.872,0,0,0-2.409,2.076,14.322,14.322,0,0,1-1.268,3.059,2.856,2.856,0,0,0,.222,3.17c.365.46.713.935,1.062,1.395l-1.807,1.807c-.46-.349-.935-.7-1.395-1.062a2.858,2.858,0,0,0-3.17-.222,12.862,12.862,0,0,1-3.059,1.268,2.853,2.853,0,0,0-2.076,2.409c-.079.586-.158,1.157-.238,1.727H271.25c-.079-.571-.158-1.157-.238-1.727a2.872,2.872,0,0,0-2.076-2.409,14.321,14.321,0,0,1-3.059-1.268,2.856,2.856,0,0,0-3.17.222c-.46.364-.935.713-1.395,1.062l-1.854-1.775c.349-.46.7-.935,1.062-1.395a2.858,2.858,0,0,0,.222-3.17,12.862,12.862,0,0,1-1.268-3.059,2.853,2.853,0,0,0-2.409-2.076c-.586-.079-1.157-.158-1.727-.238V19.418l1.727-.238a2.872,2.872,0,0,0,2.409-2.076,14.324,14.324,0,0,1,1.268-3.059,2.856,2.856,0,0,0-.222-3.17c-.364-.46-.713-.935-1.062-1.395l1.807-1.822c.46.349.935.7,1.395,1.062a2.858,2.858,0,0,0,3.17.222,12.862,12.862,0,0,1,3.059-1.268,2.853,2.853,0,0,0,2.076-2.409c.079-.586.158-1.157.238-1.727h2.583c.079.571.158,1.157.238,1.727A2.872,2.872,0,0,0,276.1,7.675a14.322,14.322,0,0,1,3.059,1.268,2.885,2.885,0,0,0,3.17-.222c.46-.364.935-.713,1.395-1.062l1.807,1.807c-.349.46-.7.935-1.062,1.395a2.858,2.858,0,0,0-.222,3.17,12.861,12.861,0,0,1,1.268,3.059,2.892,2.892,0,0,0,2.409,2.092c.586.079,1.157.158,1.727.238l.016,2.551Z" transform="translate(-251.9 -0.1)"/>
      </g>
    </g>
    <g id="Group_97" data-name="Group 97" transform="translate(53.13 13.349)">
      <g id="Group_96" data-name="Group 96">
        <path id="Path_180" data-name="Path 180" d="M342.853,83.7a7.353,7.353,0,1,0,7.353,7.353A7.359,7.359,0,0,0,342.853,83.7Zm0,11.442a4.089,4.089,0,1,1,4.089-4.089A4.1,4.1,0,0,1,342.853,95.142Z" transform="translate(-335.5 -83.7)"/>
      </g>
    </g>
  </g>
</svg>

